<svg width="5" height="8" viewBox="0 0 5 8" fill="none" xmlns="http://www.w3.org/2000/svg">
<path d="M3.80986 0C4.19085 1.14296 4.19085 1.14296 3.95431 1.83229C3.82463 2.08168 3.69494 2.33107 3.56133 2.58803C3.42259 2.85937 3.28385 3.13071 3.1409 3.41027C2.99234 3.69144 2.84378 3.9726 2.69071 4.26228C2.47008 4.69066 2.47008 4.69066 2.24499 5.12769C1.88104 5.83313 1.51243 6.53617 1.14296 7.23874C0.765782 7.23874 0.388606 7.23874 0 7.23874C0.591527 5.72579 1.23526 4.24213 1.90493 2.76215C2.10138 2.32407 2.29782 1.886 2.50022 1.43465C3.04789 0.380986 3.04789 0.380986 3.80986 0Z" fill="#020303"/>
</svg>
